# armorpaint.org
o Base
v 7.790086 -2.265123 -2.529636
v 6.62772 -2.265123 -4.813387
v 6.62772 0.171374 -4.813387
v 7.790086 0.171374 -2.529636
v 4.813387 -2.265123 -6.62772
v 4.813387 0.171374 -6.62772
v 2.529636 -2.265123 -7.790086
v 2.529636 0.171374 -7.790086
v 0 -2.265123 -8.192444
v 0 0.171374 -8.192444
v -2.529636 -2.265123 -7.790086
v -2.529636 0.171374 -7.790086
v -4.813387 -2.265123 -6.62772
v -4.813387 0.171374 -6.62772
v -6.62772 -2.265123 -4.813387
v -6.62772 0.171374 -4.813387
v -7.790086 -2.265123 -2.529636
v -7.790086 0.171374 -2.529636
v -8.192444 -2.265123 0
v -8.192444 0.171374 0
v -7.790086 -2.265123 2.529636
v -7.790086 0.171374 2.529636
v -6.62772 -2.265123 4.813387
v -6.62772 0.171374 4.813387
v -4.813387 -2.265123 6.62772
v -4.813387 0.171374 6.62772
v -2.529636 -2.265123 7.790086
v -2.529636 0.171374 7.790086
v 0 -2.265123 8.192444
v 0 0.171374 8.192444
v 2.529636 -2.265123 7.790086
v 2.529636 0.171374 7.790086
v 4.813387 -2.265123 6.62772
v 4.813387 0.171374 6.62772
v 6.62772 -2.265123 4.813387
v 6.62772 0.171374 4.813387
v 7.790086 -2.265123 2.529636
v 7.790086 0.171374 2.529636
v 8.192444 -2.265123 0
v 8.192444 0.171374 0
v 0 -2.265123 0
v 0 0.171374 0
vn 0.951048 0 -0.309
vn 0.809015 0 -0.587756
vn 0.587756 0 -0.809015
vn 0.309 0 -0.951048
vn 0 0 -1
vn -0.309 0 -0.951048
vn -0.587756 0 -0.809015
vn -0.809015 0 -0.587756
vn -0.951048 0 -0.309
vn -0.999969 0 0
vn -0.951048 0 0.309
vn -0.809015 0 0.587756
vn -0.587756 0 0.809015
vn -0.309 0 0.951048
vn 0 0 1
vn 0.309 0 0.951048
vn 0.587756 0 0.809015
vn 0.809015 0 0.587756
vn 0.951048 0 0.309
vn 1 0 0
vn 0 -1 0
vn 0 -0.999969 0
vn 0 1 0
vn 0 0.999969 0
vt 0.427381 0.645039
vt 0.439192 0.645039
vt 0.439192 1
vt 0.427381 1
vt 0.451033 0.645039
vt 0.451033 1
vt 0.462874 0.645039
vt 0.462874 1
vt 0.474715 0.645039
vt 0.474715 1
vt 0.486526 0.645039
vt 0.486526 1
vt 0.498367 0.645039
vt 0.498367 1
vt 0.510208 0.645039
vt 0.510208 1
vt 0.522019 0.645039
vt 0.522019 1
vt 0.53386 0.645039
vt 0.53386 1
vt 0.545701 0.645039
vt 0.545701 1
vt 0.557543 0.645039
vt 0.557543 1
vt 0.569353 0.645039
vt 0.569353 1
vt 0.581195 0.645039
vt 0.581195 1
vt 0.593036 0.645039
vt 0.593036 1
vt 0.604846 0.645039
vt 0.604846 1
vt 0.616688 0.645039
vt 0.616688 1
vt 0.628529 0.645039
vt 0.628529 1
vt 0.64037 0.645039
vt 0.64037 1
vt 0.652181 0.645039
vt 0.652181 1
vt 0.664022 0.645039
vt 0.664022 1
vt 0.383892 0.511917
vt 0.414014 0.571062
vt 0.212195 0.636647
vt 0.336924 0.464949
vt 0.277779 0.434828
vt 0.212195 0.424421
vt 0.146611 0.434828
vt 0.087466 0.464949
vt 0.040529 0.511917
vt 0.010376 0.571062
vt 0 0.636647
vt 0.010376 0.702231
vt 0.040529 0.761376
vt 0.087466 0.808313
vt 0.146611 0.838466
vt 0.212195 0.848842
vt 0.277779 0.838466
vt 0.336924 0.808313
vt 0.383892 0.761376
vt 0.414014 0.702231
vt 0.424421 0.636647
vt 0.414014 0.27781
vt 0.383892 0.336955
vt 0.212195 0.212226
vt 0.336924 0.383923
vt 0.277779 0.414045
vt 0.212195 0.424451
vt 0.146611 0.414045
vt 0.087466 0.383923
vt 0.040529 0.336955
vt 0.010376 0.27781
vt 0 0.212226
vt 0.010376 0.146641
vt 0.040529 0.087497
vt 0.087466 0.040559
vt 0.146611 0.010407
vt 0.212195 0
vt 0.277779 0.010407
vt 0.336924 0.040559
vt 0.383892 0.087497
vt 0.414014 0.146641
vt 0.424421 0.212226
f 1/1/1 2/2/2 3/3/2
f 3/3/2 4/4/1 1/1/1
f 2/2/2 5/5/3 6/6/3
f 6/6/3 3/3/2 2/2/2
f 5/5/3 7/7/4 8/8/4
f 8/8/4 6/6/3 5/5/3
f 7/7/4 9/9/5 10/10/5
f 10/10/5 8/8/4 7/7/4
f 9/9/5 11/11/6 12/12/6
f 12/12/6 10/10/5 9/9/5
f 11/11/6 13/13/7 14/14/7
f 14/14/7 12/12/6 11/11/6
f 13/13/7 15/15/8 16/16/8
f 16/16/8 14/14/7 13/13/7
f 15/15/8 17/17/9 18/18/9
f 18/18/9 16/16/8 15/15/8
f 17/17/9 19/19/10 20/20/10
f 20/20/10 18/18/9 17/17/9
f 19/19/10 21/21/11 22/22/11
f 22/22/11 20/20/10 19/19/10
f 21/21/11 23/23/12 24/24/12
f 24/24/12 22/22/11 21/21/11
f 23/23/12 25/25/13 26/26/13
f 26/26/13 24/24/12 23/23/12
f 25/25/13 27/27/14 28/28/14
f 28/28/14 26/26/13 25/25/13
f 27/27/14 29/29/15 30/30/15
f 30/30/15 28/28/14 27/27/14
f 29/29/15 31/31/16 32/32/16
f 32/32/16 30/30/15 29/29/15
f 31/31/16 33/33/17 34/34/17
f 34/34/17 32/32/16 31/31/16
f 33/33/17 35/35/18 36/36/18
f 36/36/18 34/34/17 33/33/17
f 35/35/18 37/37/19 38/38/19
f 38/38/19 36/36/18 35/35/18
f 37/37/19 39/39/20 40/40/20
f 40/40/20 38/38/19 37/37/19
f 39/39/20 1/41/1 4/42/1
f 4/42/1 40/40/20 39/39/20
f 2/43/21 1/44/21 41/45/21
f 5/46/22 2/43/21 41/45/21
f 7/47/21 5/46/22 41/45/21
f 9/48/21 7/47/21 41/45/21
f 11/49/22 9/48/21 41/45/21
f 13/50/21 11/49/22 41/45/21
f 15/51/21 13/50/21 41/45/21
f 17/52/21 15/51/21 41/45/21
f 19/53/21 17/52/21 41/45/21
f 21/54/22 19/53/21 41/45/21
f 23/55/22 21/54/22 41/45/21
f 25/56/21 23/55/22 41/45/21
f 27/57/21 25/56/21 41/45/21
f 29/58/21 27/57/21 41/45/21
f 31/59/22 29/58/21 41/45/21
f 33/60/22 31/59/22 41/45/21
f 35/61/22 33/60/22 41/45/21
f 37/62/22 35/61/22 41/45/21
f 39/63/22 37/62/22 41/45/21
f 1/44/21 39/63/22 41/45/21
f 4/64/23 3/65/23 42/66/23
f 3/65/23 6/67/23 42/66/23
f 6/67/23 8/68/23 42/66/23
f 8/68/23 10/69/23 42/66/23
f 10/69/23 12/70/24 42/66/23
f 12/70/24 14/71/23 42/66/23
f 14/71/23 16/72/23 42/66/23
f 16/72/23 18/73/23 42/66/23
f 18/73/23 20/74/23 42/66/23
f 20/74/23 22/75/24 42/66/23
f 22/75/24 24/76/24 42/66/23
f 24/76/24 26/77/23 42/66/23
f 26/77/23 28/78/24 42/66/23
f 28/78/24 30/79/24 42/66/23
f 30/79/24 32/80/23 42/66/23
f 32/80/23 34/81/24 42/66/23
f 34/81/24 36/82/24 42/66/23
f 36/82/24 38/83/24 42/66/23
f 38/83/24 40/84/24 42/66/23
f 40/84/24 4/64/23 42/66/23
o Button
v 5.409472 -0.454515 -3.930436
v 6.359482 -0.454515 -2.063944
v 0 -0.454515 0
v 3.930436 -0.454515 -5.409472
v 2.063944 -0.454515 -6.359482
v 0 -0.454515 -6.687329
v -2.063944 -0.454515 -6.359482
v -3.930436 -0.454515 -5.409472
v -5.409472 -0.454515 -3.930436
v -6.359482 -0.454515 -2.063944
v -6.687329 -0.454515 0
v -6.359482 -0.454515 2.063944
v -5.409472 -0.454515 3.930436
v -3.930436 -0.454515 5.409472
v -2.063944 -0.454515 6.359482
v 0 -0.454515 6.687329
v 2.063944 -0.454515 6.359482
v 3.930436 -0.454515 5.409472
v 5.409472 -0.454515 3.930436
v 6.359482 -0.454515 2.063944
v 6.687329 -0.454515 0
v 5.409472 0.134119 -3.930436
v 6.359482 0.134119 -2.063944
v 3.930436 0.134119 -5.409472
v 2.063944 0.134119 -6.359482
v 0 0.134119 -6.687329
v -2.063944 0.134119 -6.359482
v -3.930436 0.134119 -5.409472
v -5.409472 0.134119 -3.930436
v -6.359482 0.134119 -2.063944
v -6.687329 0.134119 0
v -6.359482 0.134119 2.063944
v -5.409472 0.134119 3.930436
v -3.930436 0.134119 5.409472
v -2.063944 0.134119 6.359482
v 0 0.134119 6.687329
v 2.063944 0.134119 6.359482
v 3.930436 0.134119 5.409472
v 5.409472 0.134119 3.930436
v 6.359482 0.134119 2.063944
v 6.687329 0.134119 0
v 4.075731 2.503557 -1.322564
v 3.46847 2.503557 -2.518459
v 0 2.503557 0
v 2.518459 2.503557 -3.46847
v 1.322564 2.503557 -4.075731
v 0 2.503557 -4.288087
v -1.322564 2.503557 -4.075731
v -2.518459 2.503557 -3.46847
v -3.46847 2.503557 -2.518459
v -4.075731 2.503557 -1.322564
v -4.288087 2.503557 0
v -4.075731 2.503557 1.322564
v -3.46847 2.503557 2.518459
v -2.518459 2.503557 3.46847
v -1.322564 2.503557 4.075731
v 0 2.503557 4.288087
v 1.322564 2.503557 4.075731
v 2.518459 2.503557 3.46847
v 3.46847 2.503557 2.518459
v 4.075731 2.503557 1.322564
v 4.288087 2.503557 0
v 5.692612 1.810608 -1.847864
v 5.983203 1.810608 0
v 4.839466 1.810608 -3.516902
v 3.516902 1.810608 -4.839466
v 1.847864 1.810608 -5.692612
v 0 1.810608 -5.983203
v -1.847864 1.810608 -5.692612
v -3.516902 1.810608 -4.839466
v -4.839466 1.810608 -3.516902
v -5.692612 1.810608 -1.847864
v -5.983203 1.810608 0
v -5.692612 1.810608 1.847864
v -4.839466 1.810608 3.516902
v -3.516902 1.810608 4.839466
v -1.847864 1.810608 5.692612
v 0 1.810608 5.983203
v 1.847864 1.810608 5.692612
v 3.516902 1.810608 4.839466
v 4.839466 1.810608 3.516902
v 5.692612 1.810608 1.847864
vn 0 -1 0
vn 0 -0.999969 0
vn 0.951048 0 -0.309
vn 0.809015 0 -0.587756
vn 0.774438 0.289163 -0.56267
vn 0.910398 0.289163 -0.295785
vn 0.587756 0 -0.809015
vn 0.56267 0.289163 -0.774438
vn 0.309 0 -0.951048
vn 0.295785 0.289163 -0.910398
vn 0 0 -1
vn 0 0.289163 -0.957274
vn -0.309 0 -0.951048
vn -0.295785 0.289163 -0.910398
vn -0.587756 0 -0.809015
vn -0.56267 0.289163 -0.774438
vn -0.809015 0 -0.587756
vn -0.774438 0.289163 -0.56267
vn -0.951048 0 -0.309
vn -0.910398 0.289163 -0.295785
vn -1 0 0
vn -0.957274 0.289163 0
vn -0.951048 0 0.309
vn -0.910398 0.289163 0.295785
vn -0.809015 0 0.587756
vn -0.774438 0.289163 0.56267
vn -0.587756 0 0.809015
vn -0.56267 0.289163 0.774438
vn -0.309 0 0.951048
vn -0.295785 0.289163 0.910398
vn 0 0 1
vn 0 0.289163 0.957274
vn 0.309 0 0.951048
vn 0.295785 0.289163 0.910398
vn 0.587756 0 0.809015
vn 0.56267 0.289163 0.774438
vn 0.809015 0 0.587756
vn 0.774438 0.289163 0.56267
vn 0.951048 0 0.309
vn 0.910398 0.289163 0.295785
vn 1 0 0
vn 0.957274 0.289163 0
vn 0.203345 0.976867 -0.066042
vn 0.172979 0.976867 -0.125675
vn 0 1 0
vn 0.125675 0.976867 -0.172979
vn 0.066073 0.976867 -0.203345
vn 0 0.976867 -0.213813
vn -0.066073 0.976867 -0.203345
vn -0.125675 0.976867 -0.172979
vn -0.172979 0.976867 -0.125675
vn -0.203345 0.976867 -0.066073
vn -0.213813 0.976867 0
vn -0.203345 0.976867 0.066073
vn -0.172979 0.976867 0.125675
vn -0.125675 0.976867 0.172979
vn -0.066073 0.976867 0.203345
vn 0 0.976867 0.213813
vn 0.066073 0.976867 0.203345
vn 0.125675 0.976867 0.172979
vn 0.172979 0.976867 0.125675
vn 0.203345 0.976867 0.066073
vn 0.213813 0.976867 0
vn 0.877041 0.386731 -0.284951
vn 0.922178 0.386731 0
vn 0.378643 0.925535 0
vn 0.360118 0.925535 -0.117008
vn 0.306314 0.925535 -0.222541
vn 0.746055 0.386731 -0.542039
vn 0.222541 0.925535 -0.306314
vn 0.542039 0.386731 -0.746055
vn 0.117008 0.925535 -0.360118
vn 0.284951 0.386731 -0.877041
vn 0 0.925535 -0.378643
vn 0 0.386731 -0.922178
vn -0.117008 0.925535 -0.360118
vn -0.284951 0.386731 -0.877041
vn -0.222541 0.925535 -0.306314
vn -0.542039 0.386731 -0.746055
vn -0.306314 0.925535 -0.222541
vn -0.746055 0.386731 -0.542039
vn -0.360118 0.925535 -0.117008
vn -0.877041 0.386731 -0.284951
vn -0.378643 0.925535 0
vn -0.922178 0.386731 0
vn -0.360118 0.925535 0.117008
vn -0.877041 0.386731 0.284951
vn -0.306314 0.925535 0.222541
vn -0.746055 0.386731 0.542039
vn -0.222541 0.925535 0.306314
vn -0.542039 0.386731 0.746055
vn -0.117008 0.925535 0.360118
vn -0.284951 0.386731 0.877041
vn 0 0.925535 0.378643
vn 0 0.386731 0.922178
vn 0.117008 0.925535 0.360118
vn 0.284951 0.386731 0.877041
vn 0.222541 0.925535 0.306314
vn 0.542039 0.386731 0.746055
vn 0.306314 0.925535 0.222541
vn 0.746055 0.386731 0.542039
vn 0.360118 0.925535 0.117008
vn 0.877041 0.386731 0.284951
vt 0.736259 0.071413
vt 0.760857 0.119724
vt 0.596118 0.173254
vt 0.697928 0.033113
vt 0.649648 0.008484
vt 0.596118 0.000031
vt 0.542589 0.008484
vt 0.494278 0.033113
vt 0.455947 0.071413
vt 0.431349 0.119724
vt 0.422864 0.173254
vt 0.431349 0.226783
vt 0.455947 0.275063
vt 0.494278 0.313395
vt 0.542589 0.337992
vt 0.596118 0.346477
vt 0.649648 0.337992
vt 0.697928 0.313395
vt 0.736259 0.275063
vt 0.760857 0.226783
vt 0.769341 0.173254
vt 0.773766 0.000031
vt 0.784173 0.000031
vt 0.784173 0.062441
vt 0.773766 0.062441
vt 0.79458 0.000031
vt 0.79458 0.062441
vt 0.804987 0.000031
vt 0.804987 0.062441
vt 0.815394 0.000031
vt 0.815394 0.062441
vt 0.82577 0.000031
vt 0.82577 0.062441
vt 0.836177 0.000031
vt 0.836177 0.062441
vt 0.846583 0.000031
vt 0.846583 0.062441
vt 0.85699 0.000031
vt 0.85699 0.062441
vt 0.867367 0.000031
vt 0.867367 0.062441
vt 0.877773 0.000031
vt 0.877773 0.062441
vt 0.88818 0.000031
vt 0.88818 0.062441
vt 0.898587 0.000031
vt 0.898587 0.062441
vt 0.908994 0.000031
vt 0.908994 0.062441
vt 0.91937 0.000031
vt 0.91937 0.062441
vt 0.929777 0.000031
vt 0.929777 0.062441
vt 0.940184 0.000031
vt 0.940184 0.062441
vt 0.950591 0.000031
vt 0.950591 0.062441
vt 0.960967 0.000031
vt 0.960967 0.062441
vt 0.971374 0.000031
vt 0.971374 0.062441
vt 0.98178 0.000031
vt 0.98178 0.062441
vt 0.785363 0.521928
vt 0.770959 0.550188
vt 0.688955 0.490585
vt 0.748527 0.572619
vt 0.720267 0.587023
vt 0.688955 0.591968
vt 0.657613 0.587023
vt 0.629353 0.572619
vt 0.606922 0.550188
vt 0.592517 0.521928
vt 0.587573 0.490585
vt 0.592517 0.459273
vt 0.606922 0.431013
vt 0.629353 0.408582
vt 0.657613 0.394177
vt 0.688955 0.389203
vt 0.720267 0.394177
vt 0.748527 0.408582
vt 0.770959 0.431013
vt 0.785363 0.459273
vt 0.790338 0.490585
vt 0.98178 0.312021
vt 0.971374 0.312021
vt 0.847041 0.490585
vt 0.83932 0.539445
vt 0.816858 0.583514
vt 0.773766 0.312021
vt 0.784173 0.312021
vt 0.781884 0.618519
vt 0.79458 0.312021
vt 0.737815 0.64095
vt 0.804987 0.312021
vt 0.688955 0.648701
vt 0.815394 0.312021
vt 0.640095 0.64095
vt 0.82577 0.312021
vt 0.596026 0.618519
vt 0.836177 0.312021
vt 0.561052 0.583514
vt 0.846583 0.312021
vt 0.538591 0.539445
vt 0.85699 0.312021
vt 0.530839 0.490585
vt 0.867367 0.312021
vt 0.538591 0.441725
vt 0.877773 0.312021
vt 0.561052 0.397656
vt 0.88818 0.312021
vt 0.596026 0.362682
vt 0.898587 0.312021
vt 0.640095 0.34022
vt 0.908994 0.312021
vt 0.688955 0.332499
vt 0.91937 0.312021
vt 0.737815 0.34022
vt 0.929777 0.312021
vt 0.781884 0.362682
vt 0.940184 0.312021
vt 0.816858 0.397656
vt 0.950591 0.312021
vt 0.83932 0.441725
vt 0.960967 0.312021
f 43/85/25 44/86/26 45/87/25
f 46/88/25 43/85/25 45/87/25
f 47/89/25 46/88/25 45/87/25
f 48/90/25 47/89/25 45/87/25
f 49/91/26 48/90/25 45/87/25
f 50/92/25 49/91/26 45/87/25
f 51/93/25 50/92/25 45/87/25
f 52/94/25 51/93/25 45/87/25
f 53/95/25 52/94/25 45/87/25
f 54/96/25 53/95/25 45/87/25
f 55/97/25 54/96/25 45/87/25
f 56/98/26 55/97/25 45/87/25
f 57/99/25 56/98/26 45/87/25
f 58/100/25 57/99/25 45/87/25
f 59/101/25 58/100/25 45/87/25
f 60/102/25 59/101/25 45/87/25
f 61/103/25 60/102/25 45/87/25
f 62/104/26 61/103/25 45/87/25
f 63/105/25 62/104/26 45/87/25
f 44/86/26 63/105/25 45/87/25
f 44/106/27 43/107/28 64/108/29
f 64/108/29 65/109/30 44/106/27
f 43/107/28 46/110/31 66/111/32
f 66/111/32 64/108/29 43/107/28
f 46/110/31 47/112/33 67/113/34
f 67/113/34 66/111/32 46/110/31
f 47/112/33 48/114/35 68/115/36
f 68/115/36 67/113/34 47/112/33
f 48/114/35 49/116/37 69/117/38
f 69/117/38 68/115/36 48/114/35
f 49/116/37 50/118/39 70/119/40
f 70/119/40 69/117/38 49/116/37
f 50/118/39 51/120/41 71/121/42
f 71/121/42 70/119/40 50/118/39
f 51/120/41 52/122/43 72/123/44
f 72/123/44 71/121/42 51/120/41
f 52/122/43 53/124/45 73/125/46
f 73/125/46 72/123/44 52/122/43
f 53/124/45 54/126/47 74/127/48
f 74/127/48 73/125/46 53/124/45
f 54/126/47 55/128/49 75/129/50
f 75/129/50 74/127/48 54/126/47
f 55/128/49 56/130/51 76/131/52
f 76/131/52 75/129/50 55/128/49
f 56/130/51 57/132/53 77/133/54
f 77/133/54 76/131/52 56/130/51
f 57/132/53 58/134/55 78/135/56
f 78/135/56 77/133/54 57/132/53
f 58/134/55 59/136/57 79/137/58
f 79/137/58 78/135/56 58/134/55
f 59/136/57 60/138/59 80/139/60
f 80/139/60 79/137/58 59/136/57
f 60/138/59 61/140/61 81/141/62
f 81/141/62 80/139/60 60/138/59
f 61/140/61 62/142/63 82/143/64
f 82/143/64 81/141/62 61/140/61
f 62/142/63 63/144/65 83/145/66
f 83/145/66 82/143/64 62/142/63
f 63/144/65 44/146/27 65/147/30
f 65/147/30 83/145/66 63/144/65
f 84/148/67 85/149/68 86/150/69
f 85/149/68 87/151/70 86/150/69
f 87/151/70 88/152/71 86/150/69
f 88/152/71 89/153/72 86/150/69
f 89/153/72 90/154/73 86/150/69
f 90/154/73 91/155/74 86/150/69
f 91/155/74 92/156/75 86/150/69
f 92/156/75 93/157/76 86/150/69
f 93/157/76 94/158/77 86/150/69
f 94/158/77 95/159/78 86/150/69
f 95/159/78 96/160/79 86/150/69
f 96/160/79 97/161/80 86/150/69
f 97/161/80 98/162/81 86/150/69
f 98/162/81 99/163/82 86/150/69
f 99/163/82 100/164/83 86/150/69
f 100/164/83 101/165/84 86/150/69
f 101/165/84 102/166/85 86/150/69
f 102/166/85 103/167/86 86/150/69
f 103/167/86 104/168/87 86/150/69
f 104/168/87 84/148/67 86/150/69
f 105/169/88 106/170/89 83/145/66
f 83/145/66 65/147/30 105/169/88
f 84/148/67 104/168/87 106/171/90
f 106/171/90 105/172/91 84/148/67
f 84/148/67 105/172/91 107/173/92
f 107/173/92 85/149/68 84/148/67
f 105/174/88 65/109/30 64/108/29
f 64/108/29 107/175/93 105/174/88
f 107/173/92 108/176/94 87/151/70
f 87/151/70 85/149/68 107/173/92
f 107/175/93 64/108/29 66/111/32
f 66/111/32 108/177/95 107/175/93
f 87/151/70 108/176/94 109/178/96
f 109/178/96 88/152/71 87/151/70
f 66/111/32 67/113/34 109/179/97
f 109/179/97 108/177/95 66/111/32
f 109/178/96 110/180/98 89/153/72
f 89/153/72 88/152/71 109/178/96
f 109/179/97 67/113/34 68/115/36
f 68/115/36 110/181/99 109/179/97
f 110/180/98 111/182/100 90/154/73
f 90/154/73 89/153/72 110/180/98
f 68/115/36 69/117/38 111/183/101
f 111/183/101 110/181/99 68/115/36
f 111/182/100 112/184/102 91/155/74
f 91/155/74 90/154/73 111/182/100
f 111/183/101 69/117/38 70/119/40
f 70/119/40 112/185/103 111/183/101
f 91/155/74 112/184/102 113/186/104
f 113/186/104 92/156/75 91/155/74
f 112/185/103 70/119/40 71/121/42
f 71/121/42 113/187/105 112/185/103
f 113/186/104 114/188/106 93/157/76
f 93/157/76 92/156/75 113/186/104
f 71/121/42 72/123/44 114/189/107
f 114/189/107 113/187/105 71/121/42
f 93/157/76 114/188/106 115/190/108
f 115/190/108 94/158/77 93/157/76
f 72/123/44 73/125/46 115/191/109
f 115/191/109 114/189/107 72/123/44
f 115/190/108 116/192/110 95/159/78
f 95/159/78 94/158/77 115/190/108
f 73/125/46 74/127/48 116/193/111
f 116/193/111 115/191/109 73/125/46
f 95/159/78 116/192/110 117/194/112
f 117/194/112 96/160/79 95/159/78
f 116/193/111 74/127/48 75/129/50
f 75/129/50 117/195/113 116/193/111
f 117/194/112 118/196/114 97/161/80
f 97/161/80 96/160/79 117/194/112
f 117/195/113 75/129/50 76/131/52
f 76/131/52 118/197/115 117/195/113
f 118/196/114 119/198/116 98/162/81
f 98/162/81 97/161/80 118/196/114
f 76/131/52 77/133/54 119/199/117
f 119/199/117 118/197/115 76/131/52
f 119/198/116 120/200/118 99/163/82
f 99/163/82 98/162/81 119/198/116
f 77/133/54 78/135/56 120/201/119
f 120/201/119 119/199/117 77/133/54
f 120/200/118 121/202/120 100/164/83
f 100/164/83 99/163/82 120/200/118
f 78/135/56 79/137/58 121/203/121
f 121/203/121 120/201/119 78/135/56
f 100/164/83 121/202/120 122/204/122
f 122/204/122 101/165/84 100/164/83
f 121/203/121 79/137/58 80/139/60
f 80/139/60 122/205/123 121/203/121
f 122/204/122 123/206/124 102/166/85
f 102/166/85 101/165/84 122/204/122
f 122/205/123 80/139/60 81/141/62
f 81/141/62 123/207/125 122/205/123
f 102/166/85 123/206/124 124/208/126
f 124/208/126 103/167/86 102/166/85
f 123/207/125 81/141/62 82/143/64
f 82/143/64 124/209/127 123/207/125
f 103/167/86 124/208/126 106/171/90
f 106/171/90 104/168/87 103/167/86
f 124/209/127 82/143/64 83/145/66
f 83/145/66 106/170/89 124/209/127
